<svg class="icon" viewBox="0 0 1024 1024" xmlns="http://www.w3.org/2000/svg" width="200" height="200"><defs><style/></defs><path d="M511.999 98.855h-.515c-.164 0-.324.033-.484.033C283.27 99.404 98.855 284.158 98.855 512c0 227.778 184.412 412.564 412.145 413.112.164 0 .324.032.483.032H512c228.138 0 413.145-185.011 413.145-413.144 0-228.166-185.007-413.145-413.145-413.145zm16.525 247.241c43.803-1.195 86.422-6.971 127.465-16.976 12.376 48.707 20.043 104.837 21.254 166.355H528.524V346.096zm0-33.05V134.525c44.558 12.328 89.683 71.715 118.46 162.802-38.17 9.201-77.771 14.557-118.46 15.72zm-33.05-178.914v178.915c-41.024-1.164-80.949-6.62-119.41-15.977 29.004-91.634 74.561-151.25 119.41-162.938zm0 211.933v149.41h-149.75c1.212-61.619 8.91-117.808 21.29-166.55 41.36 10.105 84.307 15.976 128.46 17.14zm-183.012 149.41H132.33c3.645-84.954 35.292-162.805 85.97-224.455 36.795 20.27 75.832 36.858 116.728 49.257-13.347 52.705-21.353 112.13-22.565 175.198zm0 33.05c1.212 63.037 9.218 122.46 22.565 175.165A609.005 609.005 0 0 0 218.3 752.976c-50.678-61.646-82.325-139.5-85.97-224.452h180.133zm33.262 0h149.75V677.74c-44.153 1.162-87.116 7.07-128.476 17.204-12.38-48.704-20.062-104.865-21.274-166.42zm149.75 182.236v179.106c-44.88-11.716-90.47-71.395-119.458-163.13 38.477-9.36 78.418-14.813 119.459-15.976zm33.05 178.72V710.76c40.704 1.163 80.305 6.551 118.492 15.75-28.761 91.15-73.914 150.637-118.492 162.97zm0-211.741V528.524h148.72c-1.216 61.455-8.879 117.52-21.206 166.196-41.073-10.005-83.696-15.818-127.514-16.98zm181.981-149.216h181.17c-3.647 84.955-35.281 162.775-85.954 224.42-37.1-20.398-76.465-37.115-117.713-49.574 13.31-52.644 21.285-111.936 22.497-174.846zm0-33.05c-1.212-63.004-9.198-122.328-22.53-175.004 41.217-12.46 80.578-29.145 117.65-49.547 50.72 61.65 82.384 139.533 86.05 224.552h-181.17zm72.347-249.79c-32.878 17.493-67.587 31.954-103.834 42.927-19.32-62.166-46.448-112.903-78.514-146.213 70.363 16.88 133.19 53.288 182.348 103.287zM422.189 142.719c-31.907 33.246-58.905 83.76-78.16 145.606a575.9 575.9 0 0 1-102.882-42.64c48.834-49.674 111.197-85.986 181.042-102.966zm-181.154 635.47a574.239 574.239 0 0 1 102.963-42.671c19.254 61.906 46.252 112.483 78.19 145.765-69.892-17.013-132.286-53.357-181.153-103.094zm359.452 103.385c32.115-33.31 59.245-84.083 78.579-146.345a575.108 575.108 0 0 1 103.882 42.991c-49.159 50.03-112.033 86.501-182.46 103.354zm0 0"/></svg>